<svg width="351" height="95" viewBox="0 0 351 95" fill="none" xmlns="http://www.w3.org/2000/svg">
<path d="M13.1875 57.96V28.84C13.1875 20.1467 17.5342 15.8 26.2275 15.8H44.5475C53.2408 15.8 57.5875 20.1467 57.5875 28.84V58.04C57.5875 65.4 54.4142 69.56 48.0675 70.52L53.3475 80.92L52.1475 83H43.7475L37.6675 71H26.2275C17.5342 71 13.1875 66.6533 13.1875 57.96ZM22.9475 58.68C22.9475 60.9733 24.1208 62.12 26.4675 62.12H44.3075C46.6542 62.12 47.8275 60.9733 47.8275 58.68V28.12C47.8275 25.8267 46.6542 24.68 44.3075 24.68H26.4675C24.1208 24.68 22.9475 25.8267 22.9475 28.12V58.68ZM69.2738 58.36V29H78.6338V59.16C78.6338 61.6133 79.8604 62.84 82.3138 62.84H95.5138V29H104.874V71H81.9138C73.4871 71 69.2738 66.7867 69.2738 58.36ZM127.259 71C118.833 71 114.619 66.84 114.619 58.52C114.619 50.2 118.833 46.04 127.259 46.04H139.579V40.84C139.579 38.3867 138.353 37.16 135.899 37.16H118.939V32.12L123.099 29H136.379C144.753 29 148.939 33.2133 148.939 41.64V71H127.259ZM123.979 59.16C123.979 61.6133 125.206 62.84 127.659 62.84H139.579V53.32H127.659C125.206 53.32 123.979 54.52 123.979 56.92V59.16ZM159.969 58.36V41.64C159.969 33.2133 164.183 29 172.609 29H183.009C191.383 29 195.569 33.2133 195.569 41.64V53.48H169.329V59.16C169.329 61.6133 170.556 62.84 173.009 62.84H193.969V67.88L189.729 71H172.609C164.183 71 159.969 66.7867 159.969 58.36ZM169.329 46.2H186.209V40.84C186.209 38.3867 184.983 37.16 182.529 37.16H173.009C170.556 37.16 169.329 38.3867 169.329 40.84V46.2ZM205.418 67.88V62.84H223.898C226.351 62.84 227.578 61.5333 227.578 58.92C227.578 56.2 226.564 54.6533 224.538 54.28L215.578 52.84C208.804 51.6667 205.418 47.8267 205.418 41.32C205.418 33.1067 209.631 29 218.058 29H230.778L235.018 32.12V37.16H218.458C215.951 37.16 214.698 38.4667 214.698 41.08C214.698 43.6933 215.764 45.1867 217.898 45.56L226.858 47C233.578 48.12 236.938 51.9867 236.938 58.6C236.938 66.8667 232.698 71 224.218 71H209.658L205.418 67.88ZM247.008 58.36V15.8H256.368V29H270.688V37.16H256.368V59.16C256.368 61.6133 257.595 62.84 260.048 62.84H271.488V67.88L267.248 71H259.648C251.221 71 247.008 66.7867 247.008 58.36ZM280.135 21.72V12.2H289.975V21.72H280.135ZM280.375 71V29H289.735V71H280.375ZM301.063 58.36V41.64C301.063 33.2133 305.276 29 313.703 29H324.903C333.276 29 337.463 33.2133 337.463 41.64V58.36C337.463 66.7867 333.276 71 324.903 71H313.703C305.276 71 301.063 66.7867 301.063 58.36ZM310.423 59.16C310.423 61.6133 311.65 62.84 314.103 62.84H324.423C326.876 62.84 328.103 61.6133 328.103 59.16V40.84C328.103 38.3867 326.876 37.16 324.423 37.16H314.103C311.65 37.16 310.423 38.3867 310.423 40.84V59.16Z" fill="black"/>
</svg>
