<svg width="451" height="95" viewBox="0 0 451 95" fill="none" xmlns="http://www.w3.org/2000/svg">
<rect x="53" y="24" width="49" height="49" rx="14" fill="url(#paint0_linear_704_1827)"/>
<rect x="40" y="24" width="49" height="49" rx="14" fill="url(#paint1_linear_704_1827)"/>
<rect x="28" y="24" width="49" height="49" rx="14" fill="url(#paint2_linear_704_1827)"/>
<path d="M120 58.96V29.84C120 21.1467 124.347 16.8 133.04 16.8H151.36C160.053 16.8 164.4 21.1467 164.4 29.84V59.04C164.4 66.4 161.227 70.56 154.88 71.52L160.16 81.92L158.96 84H150.56L144.48 72H133.04C124.347 72 120 67.6533 120 58.96ZM129.76 59.68C129.76 61.9733 130.933 63.12 133.28 63.12H151.12C153.467 63.12 154.64 61.9733 154.64 59.68V29.12C154.64 26.8267 153.467 25.68 151.12 25.68H133.28C130.933 25.68 129.76 26.8267 129.76 29.12V59.68ZM176.086 59.36V30H185.446V60.16C185.446 62.6133 186.673 63.84 189.126 63.84H202.326V30H211.686V72H188.726C180.3 72 176.086 67.7867 176.086 59.36ZM234.072 72C225.645 72 221.432 67.84 221.432 59.52C221.432 51.2 225.645 47.04 234.072 47.04H246.392V41.84C246.392 39.3867 245.165 38.16 242.712 38.16H225.752V33.12L229.912 30H243.192C251.565 30 255.752 34.2133 255.752 42.64V72H234.072ZM230.792 60.16C230.792 62.6133 232.019 63.84 234.472 63.84H246.392V54.32H234.472C232.019 54.32 230.792 55.52 230.792 57.92V60.16ZM266.782 59.36V42.64C266.782 34.2133 270.995 30 279.422 30H289.822C298.195 30 302.382 34.2133 302.382 42.64V54.48H276.142V60.16C276.142 62.6133 277.369 63.84 279.822 63.84H300.782V68.88L296.542 72H279.422C270.995 72 266.782 67.7867 266.782 59.36ZM276.142 47.2H293.022V41.84C293.022 39.3867 291.795 38.16 289.342 38.16H279.822C277.369 38.16 276.142 39.3867 276.142 41.84V47.2ZM312.23 68.88V63.84H330.71C333.163 63.84 334.39 62.5333 334.39 59.92C334.39 57.2 333.377 55.6533 331.35 55.28L322.39 53.84C315.617 52.6667 312.23 48.8267 312.23 42.32C312.23 34.1067 316.443 30 324.87 30H337.59L341.83 33.12V38.16H325.27C322.763 38.16 321.51 39.4667 321.51 42.08C321.51 44.6933 322.577 46.1867 324.71 46.56L333.67 48C340.39 49.12 343.75 52.9867 343.75 59.6C343.75 67.8667 339.51 72 331.03 72H316.47L312.23 68.88ZM353.821 59.36V16.8H363.181V30H377.501V38.16H363.181V60.16C363.181 62.6133 364.407 63.84 366.861 63.84H378.301V68.88L374.061 72H366.461C358.034 72 353.821 67.7867 353.821 59.36ZM386.948 22.72V13.2H396.788V22.72H386.948ZM387.188 72V30H396.548V72H387.188ZM407.876 59.36V42.64C407.876 34.2133 412.089 30 420.516 30H431.716C440.089 30 444.276 34.2133 444.276 42.64V59.36C444.276 67.7867 440.089 72 431.716 72H420.516C412.089 72 407.876 67.7867 407.876 59.36ZM417.236 60.16C417.236 62.6133 418.462 63.84 420.916 63.84H431.236C433.689 63.84 434.916 62.6133 434.916 60.16V41.84C434.916 39.3867 433.689 38.16 431.236 38.16H420.916C418.462 38.16 417.236 39.3867 417.236 41.84V60.16Z" fill="black"/>
<defs>
<linearGradient id="paint0_linear_704_1827" x1="100.964" y1="25.078" x2="76.1188" y2="82.1402" gradientUnits="userSpaceOnUse">
<stop stop-color="#C621E5"/>
<stop offset="1" stop-color="#7D7CF9"/>
</linearGradient>
<linearGradient id="paint1_linear_704_1827" x1="87.9637" y1="25.078" x2="63.1188" y2="82.1402" gradientUnits="userSpaceOnUse">
<stop stop-color="#AEFB2A"/>
<stop offset="1" stop-color="#57EBDE"/>
</linearGradient>
<linearGradient id="paint2_linear_704_1827" x1="75.9637" y1="25.078" x2="51.1188" y2="82.1402" gradientUnits="userSpaceOnUse">
<stop stop-color="#210CAE"/>
<stop offset="1" stop-color="#4DC9E6"/>
</linearGradient>
</defs>
</svg>
